<?xml version="1.0" encoding="UTF-8" standalone="no"?>
<!-- Created with Inkscape (http://www.inkscape.org/) -->

<svg
   xmlns:dc="http://purl.org/dc/elements/1.1/"
   xmlns:cc="http://creativecommons.org/ns#"
   xmlns:rdf="http://www.w3.org/1999/02/22-rdf-syntax-ns#"
   xmlns:svg="http://www.w3.org/2000/svg"
   xmlns="http://www.w3.org/2000/svg"
   version="1.1"
   width="360"
   height="135"
   id="svg3016">
  <defs
     id="defs3018" />
  <metadata
     id="metadata3021">
    <rdf:RDF>
      <cc:Work
         rdf:about="">
        <dc:format>image/svg+xml</dc:format>
        <dc:type
           rdf:resource="http://purl.org/dc/dcmitype/StillImage" />
        <dc:title></dc:title>
      </cc:Work>
    </rdf:RDF>
  </metadata>
  <g
     id="layer1">
    <g
       transform="matrix(0.74569831,0,0,0.74569831,-98.58576,-276.75584)"
       id="g3179">
      <path
         d="m 162.92222,490.56489 0,-59.92133 -14.98033,0 -14.98033,0 0,-29.96066 0,-29.96067 29.96066,0 29.96067,0 0,14.98033 0,14.98034 14.98033,0 14.98033,0 0,-14.98034 0,-14.98033 44.941,0 44.941,0 0,74.90166 0,74.90167 14.98033,0 14.98033,0 0,-74.90167 0,-74.90166 44.941,0 44.941,0 0,74.90166 0,74.90167 14.98033,0 14.98033,0 0,-74.90167 0,-74.90166 29.96067,0 29.96066,0 0,14.98033 0,14.98034 44.941,0 44.941,0 0,29.96066 0,29.96067 -29.96067,0 -29.96066,0 0,14.98033 0,14.98033 14.98033,0 14.98033,0 0,14.98033 0,14.98034 -29.96066,0 -29.96067,0 0,14.98033 0,14.98033 -44.94099,0 -44.941,0 0,-14.98033 0,-14.98033 -14.98033,0 -14.98034,0 0,14.98033 0,14.98033 -14.98033,0 -14.98033,0 0,-14.98033 0,-14.98033 -14.98033,0 -14.98034,0 0,14.98033 0,14.98033 -29.96066,0 -29.96067,0 0,-59.92133 0,-59.92133 -14.98033,0 -14.98033,0 0,59.92133 0,59.92133 -44.941,0 -44.941,0 0,-59.92133 z m 359.52798,-29.96066 0,-59.92133 -14.98033,0 -14.98033,0 0,59.92133 0,59.92133 14.98033,0 14.98033,0 0,-59.92133 z m -299.60665,14.98033 0,-14.98033 -14.98033,0 -14.98033,0 0,14.98033 0,14.98033 14.98033,0 14.98033,0 0,-14.98033 z m 179.76399,-14.98033 0,-29.96067 -14.98033,0 -14.98033,0 0,29.96067 0,29.96066 14.98033,0 14.98033,0 0,-29.96066 z m -209.72465,-44.941 0,-14.98033 -14.98033,0 -14.98034,0 0,14.98033 0,14.98033 14.98034,0 14.98033,0 0,-14.98033 z m 59.92133,0 0,-14.98033 -14.98033,0 -14.98034,0 0,14.98033 0,14.98033 14.98034,0 14.98033,0 0,-14.98033 z"
         id="path3185"
         style="fill:#ffffff" />
      <path
         d="m 192.88289,460.60423 c 9.98689,0 19.97377,0 29.96066,0 0,9.98689 0,19.97377 0,29.96066 -9.98689,0 -19.97377,0 -29.96066,0 0,-9.98689 0,-19.97377 0,-29.96066 z m 179.76399,-29.96067 c 9.98689,0 19.97377,0 29.96066,0 0,19.97378 0,39.94755 0,59.92133 -9.98689,0 -19.97377,0 -29.96066,0 0,-19.97378 0,-39.94755 0,-59.92133 z m 179.76399,29.96067 c 9.98689,0 19.97377,0 29.96066,0 0,9.98689 0,19.97377 0,29.96066 -9.98689,0 -19.97377,0 -29.96066,0 0,-9.98689 0,-19.97377 0,-29.96066 z"
         id="path3183"
         style="fill:#a90000" />
      <path
         d="m 132.96156,430.64356 c 9.98689,0 19.97377,0 29.96066,0 0,-9.98689 0,-19.97377 0,-29.96066 9.98689,0 19.97378,0 29.96067,0 0,-9.98689 0,-19.97378 0,-29.96067 9.98689,0 19.97377,0 29.96066,0 0,9.98689 0,19.97378 0,29.96067 9.98689,0 19.97378,0 29.96067,0 0,9.98689 0,19.97377 0,29.96066 9.98689,0 19.97377,0 29.96066,0 0,39.94755 0,79.89511 0,119.84266 -9.98689,0 -19.97377,0 -29.96066,0 0,-39.94755 0,-79.89511 0,-119.84266 -9.98689,0 -19.97378,0 -29.96067,0 0,-9.98689 0,-19.97377 0,-29.96066 -9.98689,0 -19.97377,0 -29.96066,0 0,9.98689 0,19.97377 0,29.96066 -9.98689,0 -19.97378,0 -29.96067,0 0,39.94755 0,79.89511 0,119.84266 -9.98689,0 -19.97377,0 -29.96066,0 0,-39.94755 0,-79.89511 0,-119.84266 z m 209.72465,89.882 c -9.98689,0 -19.97377,0 -29.96066,0 0,-49.93444 0,-99.86889 0,-149.80333 9.98689,0 19.97377,0 29.96066,0 0,49.93444 0,99.86889 0,149.80333 9.98689,0 19.97378,0 29.96067,0 0,9.98689 0,19.97377 0,29.96066 -9.98689,0 -19.97378,0 -29.96067,0 0,-9.98689 0,-19.97377 0,-29.96066 z m 59.92133,0 c 9.98689,0 19.97378,0 29.96067,0 0,-49.93444 0,-99.86889 0,-149.80333 9.98689,0 19.97377,0 29.96066,0 0,49.93444 0,99.86889 0,149.80333 -9.98689,0 -19.97377,0 -29.96066,0 0,9.98689 0,19.97377 0,29.96066 -9.98689,0 -19.97378,0 -29.96067,0 0,-9.98689 0,-19.97377 0,-29.96066 z m 119.84266,0 c -9.98689,0 -19.97377,0 -29.96066,0 0,-39.94755 0,-79.89511 0,-119.84266 9.98689,0 19.97377,0 29.96066,0 0,-9.98689 0,-19.97378 0,-29.96067 29.96067,0 59.92133,0 89.882,0 0,9.98689 0,19.97378 0,29.96067 -29.96067,0 -59.92133,0 -89.882,0 0,39.94755 0,79.89511 0,119.84266 19.97378,0 39.94755,0 59.92133,0 0,-19.97378 0,-39.94755 0,-59.92133 9.98689,0 19.97378,0 29.96067,0 0,29.96066 0,59.92133 0,89.88199 -29.96067,0 -59.92133,0 -89.882,0 0,-9.98689 0,-19.97377 0,-29.96066 z"
         id="path3181"
         style="fill:#000000" />
    </g>
  </g>
</svg>
